<svg width="300" height="300" viewBox="0 0 300 300" fill="none" xmlns="http://www.w3.org/2000/svg">
<path d="M42 115.339C42 153.375 42.1444 177.193 42.3609 179.683C43.1909 188.524 45.5005 196.644 49.5423 204.944C50.9137 207.723 52.8985 211.296 53.945 212.884C66.5757 231.685 75.7758 243.775 97.9336 245.904C100.424 246.12 132.58 245.904 168.235 245.904H224.243V212.378V178.889L227.058 178.672C231.172 178.348 235.177 177.193 239.219 175.208C246.978 171.383 252.211 165.861 255.675 157.85C258.526 151.246 259.103 143.307 257.227 136.053C256.577 133.419 254.015 127.933 252.355 125.479C246.906 117.504 236.946 111.694 227.599 111.044L224.243 110.828V82.8958V55H133.121H42V115.339Z" fill="#42B883"/>
<path d="M115.364 122.376C114.426 132.625 107.822 140.78 97.9336 143.848C95.7323 144.533 94.4692 144.678 91.077 144.642C86.2773 144.642 84.0399 144.1 79.8537 141.899C72.7805 138.254 67.6561 130.676 67.0065 122.881L66.79 120.319H91.1852H115.58L115.364 122.376ZM189.813 122.845C189.488 126.057 188.766 128.511 187.214 131.578C184.291 137.424 179.239 141.574 172.455 143.812C168.81 145.003 162.747 145.039 158.922 143.848C149.034 140.78 142.43 132.625 141.491 122.376L141.275 120.319H165.67H190.065L189.813 122.845Z" fill="black"/>
</svg>
