<svg width="262" height="231" viewBox="0 0 262 231" fill="none" xmlns="http://www.w3.org/2000/svg">
<path d="M0 72.9749C0 118.977 0.174581 147.783 0.436453 150.794C1.44029 161.488 4.23359 171.308 9.12187 181.346C10.7804 184.707 13.1809 189.028 14.4466 190.948C29.7224 213.687 40.8493 228.309 67.6475 230.884C70.659 231.145 109.55 230.884 152.671 230.884H220.409V190.337V149.834L223.813 149.572C228.789 149.18 233.633 147.783 238.522 145.382C247.905 140.756 254.234 134.078 258.424 124.389C261.872 116.402 262.57 106.8 260.301 98.0273C259.515 94.8412 256.416 88.2071 254.408 85.2392C247.818 75.5936 235.772 68.5667 224.468 67.7811L220.409 67.5193V33.7378V-1.52588e-05H110.204H0V72.9749Z" fill="#42B883"/>
<path d="M88.7281 81.4857C87.5934 93.881 79.6063 103.745 67.6475 107.455C64.9851 108.284 63.4575 108.459 59.3549 108.415C53.55 108.415 50.844 107.76 45.7812 105.098C37.2267 100.69 31.0291 91.5241 30.2434 82.0967L29.9816 78.9979H59.4858H88.99L88.7281 81.4857ZM178.768 82.0531C178.376 85.9375 177.503 88.9054 175.626 92.6153C172.091 99.6858 165.98 104.705 157.775 107.411C153.367 108.851 146.034 108.895 141.408 107.455C129.449 103.745 121.462 93.881 120.327 81.4857L120.065 78.9979H149.57H179.074L178.768 82.0531Z" fill="black"/>
</svg>
