<svg xmlns="http://www.w3.org/2000/svg" version="1.1" xmlns:xlink="http://www.w3.org/1999/xlink" xmlns:svgjs="http://svgjs.dev/svgjs" width="300" height="300"><svg width="300" height="300" viewBox="0 0 300 300" fill="none" xmlns="http://www.w3.org/2000/svg">
<path d="M19 106.975C19 152.977 19.1746 181.783 19.4365 184.794C20.4403 195.488 23.2336 205.308 28.1219 215.346C29.7804 218.707 32.1809 223.028 33.4466 224.948C48.7224 247.687 59.8493 262.309 86.6475 264.884C89.659 265.145 128.55 264.884 171.671 264.884H239.409V224.337V183.834L242.813 183.572C247.789 183.18 252.633 181.783 257.522 179.382C266.905 174.756 273.234 168.078 277.424 158.389C280.872 150.402 281.57 140.8 279.301 132.027C278.515 128.841 275.416 122.207 273.408 119.239C266.818 109.594 254.772 102.567 243.468 101.781L239.409 101.519V67.7378V34H129.204H19V106.975Z" fill="#42B883"></path>
<path d="M107.728 115.486C106.593 127.881 98.6063 137.745 86.6475 141.455C83.9851 142.284 82.4575 142.459 78.3549 142.415C72.55 142.415 69.844 141.76 64.7812 139.098C56.2267 134.69 50.0291 125.524 49.2434 116.097L48.9816 112.998H78.4858H107.99L107.728 115.486ZM197.768 116.053C197.376 119.938 196.503 122.905 194.626 126.615C191.091 133.686 184.98 138.705 176.775 141.411C172.367 142.851 165.034 142.895 160.408 141.455C148.449 137.745 140.462 127.881 139.327 115.486L139.065 112.998H168.57H198.074L197.768 116.053Z" fill="black"></path>
</svg><style>@media (prefers-color-scheme: light) { :root { filter: none; } }
@media (prefers-color-scheme: dark) { :root { filter: none; } }
</style></svg>